# xmcd
#
# Track frame offsets:
#	150
#	24668
#	47604
#	75632
#	94166
#	118440
#	149004
#	173717
#	193971
#	214267
#	247785
#	284061
#
# Disc length: 4145 seconds
#
# Revision: 9
# Processed by: cddbd v1.5.2PL0 Copyright (c) Steve Scherf et al.
# Submitted via: Jack! The Knife 20 Magnifico
#
DISCID=b8102f0c
DTITLE=Yngwie Malmsteen - Perpetual Flame
DYEAR=2008
DGENRE=Metal
TTITLE0=Death Dealer
TTITLE1=Damnation Game
TTITLE2=Live To Fight (Another Day)
TTITLE3=Red Devil
TTITLE4=Four Horsemen (Of The Apocalypse)
TTITLE5=Priest Of The Unholy
TTITLE6=Be Careful What You Wish For
TTITLE7=Caprici Di Diablo
TTITLE8=Lament
TTITLE9=Magic City
TTITLE10=Eleventh Hour
TTITLE11=Heavy Heart
EXTD=Yngwie Malmsteen
EXTT0=Yngwie Malmsteen
EXTT1=Yngwie Malmsteen
EXTT2=Yngwie Malmsteen
EXTT3=Yngwie Malmsteen
EXTT4=Yngwie Malmsteen
EXTT5=Yngwie Malmsteen
EXTT6=Yngwie Malmsteen
EXTT7=Yngwie Malmsteen
EXTT8=Yngwie Malmsteen
EXTT9=Yngwie Malmsteen
EXTT10=Yngwie Malmsteen
EXTT11=Yngwie Malmsteen
PLAYORDER=
